{"asset":{"generator":"glTF-Transform v4.0.2","version":"2.0"},"accessors":[{"type":"VEC3","componentType":5126,"count":88529,"max":[0.9761929512023926,0.136274516582489,0.8579664826393127],"min":[-0.9907096028327942,-0.13770796358585358,-0.8513228893280029],"bufferView":0,"byteOffset":0},{"type":"VEC3","componentType":5126,"count":88529,"bufferView":0,"byteOffset":12},{"type":"VEC2","componentType":5126,"count":88529,"bufferView":0,"byteOffset":24},{"type":"SCALAR","componentType":5125,"count":227889,"bufferView":1,"byteOffset":0}],"bufferViews":[{"buffer":0,"byteOffset":0,"byteLength":2832928,"byteStride":32,"target":34962},{"buffer":0,"byteOffset":2832928,"byteLength":911556,"target":34963}],"samplers":[{"wrapS":10497,"wrapT":10497}],"textures":[{"source":3,"sampler":0},{"source":0,"sampler":0},{"source":1,"sampler":0},{"source":2,"sampler":0}],"images":[{"name":"Image_2","mimeType":"image/jpeg","uri":"emissive_1.jpg"},{"name":"Image_3","mimeType":"image/png","uri":"normal_1.png"},{"name":"Image_1","mimeType":"image/png","uri":"occlusion_1.png"},{"name":"Image_0","mimeType":"image/png","uri":"baseColor_1.png"}],"buffers":[{"uri":"vddggdsgdsgdsgsdgdgsdgddsg.bin","byteLength":3744484}],"materials":[{"name":"Material.001","alphaMode":"BLEND","doubleSided":true,"pbrMetallicRoughness":{"baseColorTexture":{"index":0},"metallicRoughnessTexture":{"index":3}},"emissiveFactor":[1,1,1],"emissiveTexture":{"index":1},"normalTexture":{"index":2},"occlusionTexture":{"index":3}}],"meshes":[{"name":"defaultMaterial.005","primitives":[{"attributes":{"POSITION":0,"NORMAL":1,"TEXCOORD_0":2},"mode":4,"material":0,"indices":3}]}],"nodes":[{"name":"defaultMaterial.005","mesh":0},{"name":"A_love_heart_made_of__0215215702_texture","rotation":[-0.7071068286895752,0,0,0.7071068286895752],"scale":[2.5399999618530273,2.5399999618530273,2.5399999618530273],"children":[0]},{"name":"Collada visual scene group","rotation":[0.7071068286895752,0,0,0.7071068286895752],"children":[1]},{"name":"Sketchfab_model","rotation":[-0.7071068286895752,0,0,0.7071068286895752],"children":[2]},{"name":"Light","translation":[4.076245307922363,5.903861999511719,-1.0054539442062378],"rotation":[0.16907575726509094,0.7558803558349609,-0.27217137813568115,0.570947527885437]},{"name":"Camera","translation":[7.358891487121582,4.958309173583984,6.925790786743164],"rotation":[0.483536034822464,0.33687159419059753,-0.20870360732078552,0.7804827094078064]}],"scenes":[{"name":"Scene","nodes":[3,4,5]}],"scene":0}